# Blender 4.4.3
# www.blender.org
mtllib Step_001.mtl
o Step.001
v -0.963088 0.000000 0.965657
v -1.105331 0.000000 0.759961
v -1.035720 0.000000 0.919500
v -1.087785 0.000000 0.844210
v 5.397693 0.000000 0.254170
v 5.242969 0.000000 0.445478
v 5.375453 0.000000 0.336492
v 5.318819 0.000000 0.406516
v -1.060313 0.000000 -0.929562
v -0.907317 0.000000 -1.127391
v -1.038304 0.000000 -1.012757
v -0.982304 0.000000 -1.085168
v 5.262231 0.000000 -0.277456
v 5.406548 0.000000 -0.078180
v 5.335900 0.000000 -0.234509
v 5.388724 0.000000 -0.161570
v -0.907317 0.377188 -1.127391
v -1.060313 0.377188 -0.929562
v -0.982304 0.377188 -1.085168
v -1.038304 0.377188 -1.012757
v -1.105331 0.377188 0.759961
v -0.963088 0.377188 0.965657
v -1.087785 0.377188 0.844210
v -1.035720 0.377188 0.919500
v 5.242969 0.377188 0.445478
v 5.397693 0.377188 0.254170
v 5.318819 0.377188 0.406516
v 5.375453 0.377188 0.336492
v 5.406548 0.377188 -0.078180
v 5.262231 0.377188 -0.277456
v 5.388724 0.377188 -0.161570
v 5.335900 0.377188 -0.234509
v 2.010320 0.000000 1.227337
v -0.569319 0.000000 1.102352
v 0.737992 0.000000 0.198318
v 1.543841 0.000000 1.303506
v 0.998565 0.000000 1.329015
v 0.427867 0.000000 1.301364
v -0.112389 0.000000 1.223262
v -0.506828 0.000000 -1.242923
v 2.075806 0.000000 -1.230355
v 0.750486 0.000000 -0.270552
v -0.044107 0.000000 -1.339327
v 0.499542 0.000000 -1.388548
v 1.070902 0.000000 -1.385768
v 1.614046 0.000000 -1.331258
v -0.569319 0.377188 1.102352
v 2.010320 0.377188 1.227337
v 0.737992 0.377188 0.198318
v -0.112389 0.377188 1.223262
v 0.427867 0.377188 1.301364
v 0.998565 0.377188 1.329015
v 1.543841 0.377188 1.303506
v 2.075806 0.377188 -1.230355
v -0.506828 0.377188 -1.242923
v 0.750486 0.377188 -0.270552
v 1.614046 0.377188 -1.331258
v 1.070902 0.377188 -1.385768
v 0.499542 0.377188 -1.388548
v -0.044107 0.377188 -1.339327
v -3.701858 0.000000 0.845769
v -3.852615 0.000000 0.686758
v -3.778748 0.000000 0.822955
v -3.833928 0.000000 0.764753
v -1.853325 0.000000 0.740030
v -2.012336 0.000000 0.890787
v -1.876139 0.000000 0.816919
v -1.934341 0.000000 0.872100
v -3.807597 0.000000 -1.002765
v -3.648586 0.000000 -1.153522
v -3.784783 0.000000 -1.079654
v -3.726581 0.000000 -1.134835
v -1.959064 0.000000 -1.108503
v -1.808307 0.000000 -0.949493
v -1.882174 0.000000 -1.085689
v -1.826994 0.000000 -1.027487
v -3.648586 0.377188 -1.153522
v -3.807597 0.377188 -1.002765
v -3.726581 0.377188 -1.134835
v -3.784783 0.377188 -1.079654
v -3.852615 0.377188 0.686758
v -3.701858 0.377188 0.845769
v -3.833928 0.377188 0.764753
v -3.778748 0.377188 0.822955
v -2.012336 0.377188 0.890787
v -1.853325 0.377188 0.740030
v -1.934341 0.377188 0.872100
v -1.876139 0.377188 0.816919
v -1.808307 0.377188 -0.949493
v -1.959064 0.377188 -1.108503
v -1.826994 0.377188 -1.027487
v -1.882174 0.377188 -1.085689
vn 0.9996 -0.0000 0.0266
vn -0.0000 -1.0000 -0.0000
vn 0.2865 -0.0000 -0.9581
vn -0.0000 1.0000 -0.0000
vn 0.2351 -0.0000 0.9720
vn -0.2772 -0.0000 -0.9608
vn -0.3279 -0.0000 0.9447
vn -0.9790 -0.0000 0.2039
vn -0.8225 -0.0000 0.5688
vn -0.5363 -0.0000 0.8440
vn 0.5036 -0.0000 -0.8639
vn 0.8099 -0.0000 -0.5866
vn 0.9779 -0.0000 -0.2090
vn 0.4569 -0.0000 0.8895
vn 0.7775 -0.0000 0.6289
vn 0.9654 -0.0000 0.2608
vn -0.4906 -0.0000 -0.8714
vn -0.7910 -0.0000 -0.6118
vn -0.9667 -0.0000 -0.2557
vn -0.9996 -0.0000 -0.0266
vn 0.1612 -0.0000 0.9869
vn 0.0467 -0.0000 0.9989
vn -0.0484 -0.0000 0.9988
vn -0.1431 -0.0000 0.9897
vn -0.2558 -0.0000 0.9667
vn -0.2040 -0.0000 -0.9790
vn -0.0902 -0.0000 -0.9959
vn 0.0049 -0.0000 -1.0000
vn 0.0999 -0.0000 -0.9950
vn 0.2135 -0.0000 -0.9769
vn -0.0266 -0.0000 0.9996
vn 0.0266 -0.0000 -0.9996
vn 0.2845 -0.0000 -0.9587
vn 0.7257 -0.0000 -0.6880
vn 0.9725 -0.0000 -0.2330
vn 0.2330 -0.0000 0.9725
vn 0.6880 -0.0000 0.7257
vn 0.9587 -0.0000 0.2845
vn -0.2845 -0.0000 0.9587
vn -0.7257 -0.0000 0.6880
vn -0.9725 -0.0000 0.2330
vn -0.2330 -0.0000 -0.9725
vn -0.6880 -0.0000 -0.7257
vn -0.9587 -0.0000 -0.2845
vt 1.000000 0.241208
vt 1.000000 0.758792
vt 1.000000 0.758792
vt 1.000000 0.241208
vt 0.030056 0.000000
vt 0.014216 0.002867
vt 0.001342 0.036042
vt 0.000000 0.077469
vt 0.000000 0.922531
vt 0.001342 0.963958
vt 0.014216 0.997133
vt 0.030056 1.000000
vt 0.110915 1.000000
vt 0.372005 0.574195
vt 0.372005 0.425805
vt 0.110915 0.000000
vt 0.979841 1.000000
vt 0.547118 1.000000
vt 0.014216 0.002867
vt 0.030056 0.000000
vt 0.110915 0.000000
vt 0.372005 0.425805
vt 0.372005 0.574195
vt 0.110915 1.000000
vt 0.030056 1.000000
vt 0.001342 0.963958
vt 0.547118 0.000000
vt 0.979841 0.000000
vt 0.547118 0.000000
vt 0.979841 0.000000
vt 0.990390 0.008208
vt 0.999100 0.112555
vt 0.999100 0.887445
vt 0.990390 0.991792
vt 0.110915 1.000000
vt 0.030056 1.000000
vt 0.030056 1.000000
vt 0.110915 1.000000
vt 0.030056 0.000000
vt 0.110915 0.000000
vt 0.110915 0.000000
vt 0.030056 0.000000
vt 0.990390 0.008208
vt 0.999100 0.112555
vt 0.485796 0.000000
vt 0.416059 0.000000
vt 0.344732 0.000000
vt 0.278799 0.000000
vt 0.224713 0.000000
vt 0.202345 1.000000
vt 0.306321 1.000000
vt 0.412667 1.000000
vt 0.510972 1.000000
vt 0.591613 1.000000
vt 0.202345 0.000000
vt 0.306321 0.000000
vt 0.412667 0.000000
vt 0.510972 0.000000
vt 0.591613 0.000000
vt 0.485796 1.000000
vt 0.416059 1.000000
vt 0.344732 1.000000
vt 0.278799 1.000000
vt 0.224713 1.000000
vt 0.485796 1.000000
vt 0.547118 1.000000
vt 0.979841 1.000000
vt 0.077469 0.000000
vt 0.922531 0.000000
vt 0.922531 1.000000
vt 0.077469 1.000000
vt 0.038735 0.003460
vt 0.003460 0.038735
vt 0.003460 0.961265
vt 0.038735 0.996540
vt 0.961265 0.996540
vt 0.996540 0.961265
vt 1.000000 0.922531
vt 1.000000 0.077469
vt 0.996540 0.038735
vt 0.961265 0.003460
vt 0.003460 0.038735
vt 0.038735 0.003460
vt 0.996540 0.038735
vt 0.038735 0.996540
s 0
f 5/1/1 14/2/1 29/3/1 26/4/1
f 1/5/2 3/6/2 4/7/2 2/8/2 9/9/2 11/10/2 12/11/2 10/12/2 40/13/2 42/14/2 35/15/2 34/16/2
f 13/17/3 41/18/3 54/18/3 30/17/3
f 21/8/4 23/7/4 24/19/4 22/20/4 47/21/4 49/22/4 56/23/4 55/24/4 17/25/4 19/11/4 20/26/4 18/9/4
f 33/27/5 6/28/5 25/28/5 48/27/5
f 49/15/4 48/29/4 25/30/4 27/31/4 28/32/4 26/1/4 29/2/4 31/33/4 32/34/4 30/17/4 54/18/4 56/14/4
f 40/35/6 10/36/6 17/37/6 55/38/6
f 1/39/7 34/40/7 47/41/7 22/42/7
f 21/8/8 2/8/8 4/7/8 23/7/8
f 23/7/9 4/7/9 3/6/9 24/19/9
f 24/19/10 3/6/10 1/39/10 22/42/10
f 13/17/11 30/17/11 32/34/11 15/34/11
f 15/34/12 32/34/12 31/33/12 16/33/12
f 16/33/13 31/33/13 29/3/13 14/2/13
f 25/28/14 6/28/14 8/43/14 27/31/14
f 27/31/15 8/43/15 7/44/15 28/32/15
f 28/32/16 7/44/16 5/1/16 26/4/16
f 17/37/17 10/36/17 12/11/17 19/11/17
f 19/11/18 12/11/18 11/10/18 20/26/18
f 20/26/19 11/10/19 9/9/19 18/9/19
f 9/9/20 2/8/20 21/8/20 18/9/20
f 33/27/2 36/45/2 35/15/2
f 36/45/2 37/46/2 35/15/2
f 37/46/2 38/47/2 35/15/2
f 38/47/2 39/48/2 35/15/2
f 39/48/2 34/49/2 35/15/2
f 40/35/2 43/50/2 42/23/2
f 43/50/2 44/51/2 42/23/2
f 44/51/2 45/52/2 42/23/2
f 45/52/2 46/53/2 42/23/2
f 46/53/2 41/54/2 42/23/2
f 47/41/4 50/55/4 49/15/4
f 50/55/4 51/56/4 49/15/4
f 51/56/4 52/57/4 49/15/4
f 52/57/4 53/58/4 49/15/4
f 53/58/4 48/59/4 49/15/4
f 54/18/4 57/60/4 56/23/4
f 57/60/4 58/61/4 56/23/4
f 58/61/4 59/62/4 56/23/4
f 59/62/4 60/63/4 56/23/4
f 60/63/4 55/64/4 56/23/4
f 33/27/21 48/27/21 53/45/21 36/45/21
f 36/45/22 53/45/22 52/46/22 37/46/22
f 37/46/23 52/46/23 51/56/23 38/56/23
f 38/56/24 51/56/24 50/55/24 39/55/24
f 39/55/25 50/55/25 47/41/25 34/40/25
f 40/35/26 55/38/26 60/50/26 43/50/26
f 43/50/27 60/50/27 59/51/27 44/51/27
f 44/51/28 59/51/28 58/61/28 45/61/28
f 45/61/29 58/61/29 57/60/29 46/65/29
f 46/65/30 57/60/30 54/18/30 41/18/30
f 33/27/2 35/22/2 42/23/2 41/66/2 13/67/2 15/34/2 16/33/2 14/3/2 5/4/2 7/44/2 8/43/2 6/28/2
f 61/68/31 66/69/31 85/69/31 82/68/31
f 73/70/32 70/71/32 77/71/32 90/70/32
f 61/68/2 63/72/2 64/73/2 62/8/2 69/9/2 71/74/2 72/75/2 70/71/2 73/70/2 75/76/2 76/77/2 74/78/2 65/79/2 67/80/2 68/81/2 66/69/2
f 81/8/4 83/82/4 84/83/4 82/68/4 85/69/4 87/81/4 88/84/4 86/79/4 89/78/4 91/77/4 92/76/4 90/70/4 77/71/4 79/85/4 80/74/4 78/9/4
f 65/79/1 74/78/1 89/78/1 86/79/1
f 73/70/33 90/70/33 92/76/33 75/76/33
f 75/76/34 92/76/34 91/77/34 76/77/34
f 76/77/35 91/77/35 89/78/35 74/78/35
f 85/69/36 66/69/36 68/81/36 87/81/36
f 87/81/37 68/81/37 67/80/37 88/84/37
f 88/84/38 67/80/38 65/79/38 86/79/38
f 61/68/39 82/68/39 84/83/39 63/72/39
f 63/72/40 84/83/40 83/82/40 64/73/40
f 64/73/41 83/82/41 81/8/41 62/8/41
f 77/71/42 70/71/42 72/75/42 79/85/42
f 79/85/43 72/75/43 71/74/43 80/74/43
f 80/74/44 71/74/44 69/9/44 78/9/44
f 69/9/20 62/8/20 81/8/20 78/9/20
