# Blender 4.4.3
# www.blender.org
mtllib Spoon.mtl
o Spoon
v 0.005516 -0.006255 0.006255
v 0.005516 0.006255 0.006255
v 0.005516 -0.006255 -0.006255
v 0.005516 0.006255 -0.006255
v 0.018026 -0.006255 0.006255
v 0.018026 0.006255 0.006255
v 0.018026 -0.006255 -0.006255
v 0.018026 0.006255 -0.006255
v 0.063608 0.010035 -0.010035
v 0.063608 -0.010035 -0.010035
v 0.063608 -0.010035 0.010035
v 0.063608 0.010035 0.010035
v -0.054382 -0.006255 -0.006255
v -0.054382 -0.006255 0.006255
v -0.054382 0.006255 0.006255
v -0.054382 0.006255 -0.006255
v -0.104779 0.003941 -0.003123
v -0.104779 0.003941 0.003123
v -0.104779 -0.003941 0.003123
v -0.104779 -0.003941 -0.003123
v -0.067534 -0.003982 0.003982
v -0.067534 0.003982 0.003982
v -0.067534 -0.003982 -0.003982
v -0.067534 0.003982 -0.003982
v -0.111136 0.000911 -0.015695
v -0.111136 0.000911 0.015695
v -0.111136 -0.000968 0.015695
v -0.111136 -0.000968 -0.015695
v -0.177986 0.000933 -0.007152
v -0.177986 0.000933 0.007152
v -0.177986 -0.000933 0.007152
v -0.177986 -0.000933 -0.007152
v -0.144561 -0.001507 -0.022403
v -0.144561 -0.001507 0.022403
v -0.144561 0.000503 0.022403
v -0.144561 0.000503 -0.022403
v -0.121558 -0.004021 -0.010801
v -0.121558 -0.004021 0.010801
v -0.167564 -0.002640 -0.004922
v -0.167564 -0.002640 0.004922
v -0.144561 -0.003590 0.015417
v -0.144561 -0.003590 -0.015417
v -0.122633 -0.006388 0.010296
v -0.122633 -0.006388 -0.010297
v -0.166490 -0.004895 0.004692
v -0.166490 -0.004895 -0.004692
v -0.144561 -0.007102 -0.014697
v -0.144561 -0.007102 0.014697
v -0.127609 -0.001378 -0.020713
v -0.127609 0.000279 -0.020713
v -0.127609 -0.001378 0.020712
v -0.127609 0.000279 0.020712
v -0.133276 -0.004200 -0.014254
v -0.133276 -0.004200 0.014254
v -0.133860 -0.007319 -0.013588
v -0.133860 -0.007319 0.013588
v -0.161649 -0.001020 0.016798
v -0.161649 0.000693 0.016798
v -0.161649 -0.001020 -0.016798
v -0.161649 0.000693 -0.016798
v -0.155725 -0.003806 0.011560
v -0.155725 -0.003806 -0.011560
v -0.155114 -0.007080 0.011020
v -0.155114 -0.007080 -0.011021
v -0.170119 -0.000422 0.012816
v -0.170119 0.000879 0.012816
v -0.161372 -0.003346 0.008820
v -0.160470 -0.006325 0.008408
v -0.170119 -0.000422 -0.012816
v -0.170119 0.000879 -0.012816
v -0.161372 -0.003346 -0.008820
v -0.160470 -0.006325 -0.008408
v 0.018026 0.006255 -0.000000
v 0.063608 0.010035 -0.000000
v 0.005516 -0.006255 -0.000000
v 0.018026 -0.006255 -0.000000
v 0.005516 0.006255 -0.000000
v 0.063608 -0.010035 -0.000000
v -0.054382 0.006255 -0.000000
v -0.054382 -0.006255 -0.000000
v -0.104779 0.003941 -0.000000
v -0.104779 -0.003943 -0.000000
v -0.067547 0.003982 -0.000000
v -0.067547 -0.003982 -0.000000
v -0.111136 0.000450 -0.000000
v -0.111136 -0.001475 -0.000000
v -0.177986 0.000933 -0.000000
v -0.177986 -0.000933 -0.000000
v -0.121558 -0.004937 -0.000000
v -0.167564 -0.002718 -0.000000
v -0.144561 -0.005937 -0.000000
v -0.122633 -0.007295 -0.000000
v -0.166490 -0.004980 -0.000000
v -0.144561 -0.009359 -0.000000
v -0.133860 -0.009321 -0.000000
v -0.133276 -0.006297 -0.000000
v -0.155114 -0.008139 -0.000000
v -0.155725 -0.004897 -0.000000
v -0.160470 -0.006793 -0.000000
v -0.161372 -0.003814 -0.000000
v 0.066319 0.006812 -0.000000
v 0.066319 0.006812 0.006812
v 0.066319 -0.006812 -0.000000
v 0.066319 -0.006812 0.006812
v 0.066319 0.006812 -0.006812
v 0.066319 -0.006812 -0.006812
vn -0.0000 -0.0000 -1.0000
vn -0.0826 0.9966 -0.0000
vn -0.0000 -0.0000 1.0000
vn -0.0000 -1.0000 -0.0000
vn -0.0000 1.0000 -0.0000
vn 0.7653 -0.0000 -0.6437
vn -0.0826 -0.0000 -0.9966
vn -0.0826 -0.0000 0.9966
vn -0.0826 -0.9966 -0.0000
vn -0.0230 -0.0000 0.9997
vn -0.0011 1.0000 -0.0000
vn -0.0231 -0.0000 -0.9997
vn -0.0011 -1.0000 0.0002
vn -0.1702 -0.9854 0.0002
vn -0.1703 -0.0000 -0.9854
vn -0.1702 0.9854 -0.0002
vn -0.1703 -0.0000 0.9854
vn 0.8924 -0.0000 0.4513
vn -0.3723 -0.9278 0.0251
vn 0.8924 -0.0000 -0.4513
vn -0.4731 0.8807 0.0216
vn 0.4293 -0.9018 0.0491
vn -0.5843 -0.0000 0.8115
vn -0.5843 -0.0000 -0.8115
vn -0.0284 0.8482 0.5289
vn -1.0000 -0.0000 -0.0000
vn 0.2663 0.9095 0.3192
vn 0.0992 -0.0000 -0.9951
vn 0.0992 -0.0000 0.9951
vn 0.0579 -0.7996 0.5977
vn 0.1560 0.9870 0.0391
vn 0.0348 0.9884 0.1480
vn 0.3269 0.9451 -0.0061
vn -0.1681 0.8627 -0.4769
vn 0.1701 0.8431 -0.5102
vn -0.4343 0.8995 0.0468
vn -0.2715 -0.9616 0.0406
vn -0.0006 -0.9889 0.1489
vn -0.2982 -0.8862 0.3547
vn -0.2091 -0.7876 -0.5796
vn 0.1903 -0.8461 -0.4979
vn -0.3283 -0.9445 -0.0068
vn 0.0579 -0.7996 -0.5977
vn 0.1469 -0.9819 0.1196
vn -0.0284 0.8482 -0.5289
vn -0.0825 0.9895 0.1190
vn 0.1903 -0.8461 0.4979
vn 0.2914 -0.0000 0.9566
vn 0.2914 -0.0000 -0.9566
vn -0.1681 0.8627 0.4769
vn -0.3081 -0.8230 -0.4772
vn -0.2091 -0.7876 0.5796
vn -0.0803 -0.9886 0.1274
vn 0.2450 0.8684 -0.4311
vn 0.0584 0.9903 0.1262
vn 0.1701 0.8431 0.5102
vn -0.3117 -0.0000 -0.9502
vn -0.3117 -0.0000 0.9502
vn 0.2663 0.9095 -0.3192
vn -0.2982 -0.8862 -0.3547
vn -0.3081 -0.8230 0.4772
vn -0.2099 -0.9747 0.0766
vn 0.1529 0.9854 0.0754
vn 0.2450 0.8684 0.4311
vn -0.4254 -0.0000 -0.9050
vn -0.4254 -0.0000 0.9050
vn 0.1529 0.9854 -0.0754
vn -0.2099 -0.9747 -0.0766
vn 0.0584 0.9903 -0.1262
vn -0.0803 -0.9886 -0.1274
vn -0.0825 0.9895 -0.1190
vn 0.1469 -0.9819 -0.1196
vn -0.3283 -0.9445 0.0068
vn -0.0006 -0.9889 -0.1489
vn -0.2715 -0.9616 -0.0406
vn -0.4343 0.8995 -0.0468
vn 0.3269 0.9451 0.0061
vn 0.0348 0.9884 -0.1480
vn 0.1560 0.9870 -0.0391
vn 0.4293 -0.9018 -0.0491
vn -0.4731 0.8807 -0.0216
vn -0.3723 -0.9278 -0.0251
vn -0.1702 0.9854 0.0002
vn -0.1702 -0.9854 -0.0002
vn -0.0011 -1.0000 -0.0002
vn 0.7653 0.6437 -0.0000
vn 1.0000 -0.0000 -0.0000
vn 0.7653 -0.6437 -0.0000
vn 0.7653 -0.0000 0.6437
vt 0.625000 0.250000
vt 0.375000 0.250000
vt 0.625000 0.500000
vt 0.375000 0.500000
vt 0.625000 0.625000
vt 0.625000 0.750000
vt 0.375000 0.750000
vt 0.625000 1.000000
vt 0.375000 1.000000
vt 0.125000 0.625000
vt 0.375000 0.625000
vt 0.125000 0.750000
vt 0.875000 0.625000
vt 0.875000 0.750000
vt 0.875000 0.500000
vt 0.875000 0.625000
vt 0.875000 0.625000
vt 0.625000 0.250000
vt 0.375000 0.250000
vt 0.625000 0.250000
vt 0.125000 0.625000
vt 0.750000 0.500000
vt 0.125000 0.500000
vt 0.375000 1.000000
vt 0.625000 1.000000
vt 0.875000 0.500000
vt 0.875000 0.625000
vt 0.125000 0.625000
vt 0.125000 0.750000
vt 0.125000 0.625000
vt 0.125000 0.500000
s 0
f 4/1/1 3/2/1 13/2/1 16/1/1
f 3/2/1 4/1/1 8/3/1 7/4/1
f 73/5/2 6/6/2 12/6/2 74/5/2
f 5/7/3 6/6/3 2/8/3 1/9/3
f 75/10/4 76/11/4 5/7/4 1/12/4
f 73/5/5 77/13/5 2/14/5 6/6/5
f 10/4/6 9/3/6 105/3/6 106/4/6
f 7/4/7 8/3/7 9/3/7 10/4/7
f 6/6/8 5/7/8 11/7/8 12/6/8
f 76/11/9 7/4/9 10/4/9 78/11/9
f 21/9/10 22/8/10 18/8/10 19/9/10
f 1/9/3 2/8/3 15/8/3 14/9/3
f 77/13/5 4/15/5 16/15/5 79/16/5
f 75/10/4 1/12/4 14/12/4 80/10/4
f 83/13/11 24/15/11 17/15/11 81/17/11
f 24/18/12 23/19/12 20/2/12 17/1/12
f 84/10/13 21/12/13 19/12/13 82/10/13
f 80/10/14 14/12/14 21/12/14 84/10/14
f 16/1/15 13/2/15 23/19/15 24/18/15
f 79/16/16 16/15/16 24/15/16 83/13/16
f 14/9/17 15/8/17 22/8/17 21/9/17
f 19/9/18 18/8/18 26/8/18 27/9/18
f 82/10/19 19/12/19 27/12/19 86/10/19
f 17/1/20 20/2/20 28/2/20 25/1/20
f 81/17/21 17/15/21 25/15/21 85/13/21
f 86/10/22 27/12/22 43/12/22 92/10/22
f 65/9/23 66/8/23 30/8/23 31/9/23
f 70/1/24 69/2/24 32/2/24 29/1/24
f 50/1/25 36/1/25 42/1/25 53/20/25
f 88/21/26 87/22/26 29/1/26 32/23/26
f 70/1/27 29/1/27 39/1/27 71/1/27
f 50/1/28 49/2/28 33/2/28 36/1/28
f 51/24/29 52/25/29 35/8/29 34/9/29
f 51/24/30 34/9/30 48/9/30 56/9/30
f 100/13/31 71/26/31 39/15/31 90/13/31
f 96/13/32 53/15/32 42/15/32 91/27/32
f 87/22/33 30/14/33 40/14/33 90/22/33
f 52/25/34 26/8/34 38/8/34 54/8/34
f 58/8/35 35/8/35 41/8/35 61/8/35
f 85/13/36 25/15/36 37/15/36 89/16/36
f 99/28/37 68/29/37 45/12/37 93/30/37
f 95/10/38 56/12/38 48/12/38 94/10/38
f 65/9/39 31/9/39 45/9/39 68/9/39
f 59/2/40 33/2/40 47/2/40 64/2/40
f 49/2/41 28/2/41 44/2/41 55/2/41
f 88/21/42 32/23/42 46/23/42 93/30/42
f 33/2/43 49/2/43 55/2/43 47/2/43
f 92/10/44 43/12/44 56/12/44 95/10/44
f 35/8/45 52/25/45 54/8/45 41/8/45
f 89/16/46 37/15/46 53/15/46 96/13/46
f 27/9/47 51/24/47 56/9/47 43/9/47
f 27/9/48 26/8/48 52/25/48 51/24/48
f 25/1/49 28/2/49 49/2/49 50/1/49
f 25/1/50 50/1/50 53/20/50 37/1/50
f 69/2/51 59/2/51 64/2/51 72/2/51
f 34/9/52 57/9/52 63/9/52 48/9/52
f 94/10/53 48/12/53 63/12/53 97/10/53
f 66/8/54 58/8/54 61/8/54 67/8/54
f 91/27/55 42/15/55 62/15/55 98/16/55
f 36/1/56 60/1/56 62/1/56 42/1/56
f 36/1/57 33/2/57 59/2/57 60/1/57
f 34/9/58 35/8/58 58/8/58 57/9/58
f 30/8/59 66/8/59 67/8/59 40/8/59
f 32/2/60 69/2/60 72/2/60 46/2/60
f 57/9/61 65/9/61 68/9/61 63/9/61
f 97/10/62 63/12/62 68/29/62 99/28/62
f 98/16/63 62/15/63 71/26/63 100/13/63
f 60/1/64 70/1/64 71/1/64 62/1/64
f 60/1/65 59/2/65 69/2/65 70/1/65
f 57/9/66 58/8/66 66/8/66 65/9/66
f 61/14/67 98/16/67 100/13/67 67/14/67
f 64/23/68 97/10/68 99/28/68 72/31/68
f 41/14/69 91/27/69 98/16/69 61/14/69
f 47/23/70 94/10/70 97/10/70 64/23/70
f 38/14/71 89/16/71 96/13/71 54/14/71
f 44/23/72 92/10/72 95/10/72 55/31/72
f 31/12/73 88/21/73 93/30/73 45/12/73
f 55/31/74 95/10/74 94/10/74 47/23/74
f 72/31/75 99/28/75 93/30/75 46/23/75
f 26/14/76 85/13/76 89/16/76 38/14/76
f 29/1/77 87/22/77 90/22/77 39/1/77
f 54/14/78 96/13/78 91/27/78 41/14/78
f 67/14/79 100/13/79 90/13/79 40/14/79
f 31/12/26 30/14/26 87/22/26 88/21/26
f 28/23/80 86/10/80 92/10/80 44/23/80
f 18/14/81 81/17/81 85/13/81 26/14/81
f 20/23/82 82/10/82 86/10/82 28/23/82
f 15/14/83 79/16/83 83/13/83 22/14/83
f 13/23/84 80/10/84 84/10/84 23/23/84
f 23/23/85 84/10/85 82/10/85 20/23/85
f 22/14/11 83/13/11 81/17/11 18/14/11
f 3/23/4 75/10/4 80/10/4 13/23/4
f 2/14/5 77/13/5 79/16/5 15/14/5
f 5/7/9 76/11/9 78/11/9 11/7/9
f 74/5/86 12/6/86 102/6/86 101/5/86
f 8/3/5 4/15/5 77/13/5 73/5/5
f 3/23/4 7/4/4 76/11/4 75/10/4
f 8/3/2 73/5/2 74/5/2 9/3/2
f 103/11/87 101/5/87 102/6/87 104/7/87
f 106/4/87 105/3/87 101/5/87 103/11/87
f 78/11/88 10/4/88 106/4/88 103/11/88
f 9/3/86 74/5/86 101/5/86 105/3/86
f 12/6/89 11/7/89 104/7/89 102/6/89
f 11/7/88 78/11/88 103/11/88 104/7/88
