# Blender 4.4.3
# www.blender.org
mtllib Blood_Small.mtl
o Blood_Small
v -0.160129 -0.038593 -1.205957
v -0.121902 0.001407 -1.190366
v -0.098704 -0.038593 -1.224517
v -0.233559 -0.038593 -1.106791
v -0.257918 -0.038593 -1.034648
v -0.217546 0.001407 -1.061200
v -0.262713 -0.038593 -0.689389
v -0.222727 0.001407 -0.688134
v -0.288547 -0.038593 -0.161182
v -0.248840 0.001407 -0.154208
v -0.460351 -0.038593 0.396431
v -0.422411 0.001407 0.409140
v -0.632152 -0.038593 0.870636
v -0.592152 0.001407 0.877658
v -0.632144 -0.038593 1.132918
v -0.594486 -0.038593 1.186410
v -0.592143 0.001407 1.144759
v -0.458145 -0.038593 1.235258
v -0.384256 -0.038593 1.231804
v -0.422509 0.001407 1.205536
v -0.070966 -0.038593 1.085287
v -0.094613 0.001407 1.052188
v 0.289397 -0.038593 0.711844
v 0.255866 0.001407 0.688988
v 0.524049 -0.038593 0.198817
v 0.484406 0.001407 0.189323
v 0.546770 -0.038593 -0.353295
v 0.506482 0.001407 -0.347113
v 0.373277 -0.038593 -0.835091
v 0.338106 0.001407 -0.814700
v 0.104174 -0.038593 -1.151252
v 0.080598 0.001407 -1.117238
v -0.160129 -0.050379 -1.205957
v -0.098704 -0.050379 -1.224517
v -0.121902 -0.090379 -1.190366
v -0.233559 -0.050379 -1.106791
v -0.217546 -0.090379 -1.061200
v -0.257918 -0.050379 -1.034648
v -0.222727 -0.090379 -0.688134
v -0.262713 -0.050379 -0.689389
v -0.248840 -0.090379 -0.154208
v -0.288547 -0.050379 -0.161182
v -0.422411 -0.090379 0.409140
v -0.460351 -0.050379 0.396431
v -0.592152 -0.090379 0.877658
v -0.632152 -0.050379 0.870636
v -0.632144 -0.050379 1.132918
v -0.592143 -0.090379 1.144759
v -0.594486 -0.050379 1.186410
v -0.458145 -0.050379 1.235258
v -0.422509 -0.090379 1.205536
v -0.384256 -0.050379 1.231804
v -0.094613 -0.090379 1.052188
v -0.070966 -0.050379 1.085287
v 0.255866 -0.090379 0.688988
v 0.289397 -0.050379 0.711844
v 0.484406 -0.090379 0.189323
v 0.524049 -0.050379 0.198817
v 0.506482 -0.090379 -0.347113
v 0.546770 -0.050379 -0.353295
v 0.338106 -0.090379 -0.814700
v 0.373277 -0.050379 -0.835091
v 0.080598 -0.090379 -1.117238
v 0.104174 -0.050379 -1.151252
vn 0.3397 -0.0000 -0.9405
vn -0.0000 -1.0000 -0.0000
vn -0.3373 -0.0000 0.9414
vn -0.9999 -0.0000 -0.0139
vn 0.4236 -0.0000 0.9058
vn 0.7196 -0.0000 0.6944
vn -0.0000 1.0000 -0.0000
vn 0.9094 -0.0000 0.4159
vn -0.9988 -0.0000 -0.0489
vn 0.9992 -0.0000 0.0411
vn -0.9557 -0.0000 -0.2944
vn 0.9409 -0.0000 -0.3388
vn -0.9402 -0.0000 -0.3406
vn 0.7615 -0.0000 -0.6482
vn -1.0000 -0.0000 -0.0000
vn -0.2426 0.5447 -0.8028
vn -0.7602 0.5969 -0.2567
vn -0.6864 0.5434 0.4832
vn 0.0382 0.5738 0.8181
vn -0.2426 -0.5447 -0.8028
vn -0.7602 -0.5969 -0.2567
vn -0.6864 -0.5434 0.4832
vn 0.0382 -0.5738 0.8181
vn -0.5683 0.7071 -0.4208
vn -0.7070 0.7071 -0.0098
vn -0.7063 0.7071 -0.0345
vn -0.6758 0.7071 -0.2082
vn -0.6648 0.7071 -0.2409
vn -0.7071 0.7071 -0.0000
vn -0.2385 0.7071 0.6657
vn 0.2996 0.7071 0.6405
vn 0.5088 0.7071 0.4910
vn 0.6430 0.7071 0.2941
vn 0.7065 0.7071 0.0291
vn 0.6653 0.7071 -0.2396
vn 0.5385 0.7071 -0.4583
vn 0.2402 0.7071 -0.6651
vn -0.5683 -0.7071 -0.4208
vn -0.7070 -0.7071 -0.0098
vn -0.7063 -0.7071 -0.0345
vn -0.6758 -0.7071 -0.2082
vn -0.6648 -0.7071 -0.2409
vn -0.7071 -0.7071 -0.0000
vn -0.2385 -0.7071 0.6657
vn 0.2996 -0.7071 0.6405
vn 0.5088 -0.7071 0.4910
vn 0.6430 -0.7071 0.2941
vn 0.7065 -0.7071 0.0291
vn 0.6653 -0.7071 -0.2396
vn 0.5385 -0.7071 -0.4583
vn 0.2402 -0.7071 -0.6651
vn -0.8177 -0.0000 0.5756
vn -0.2892 -0.0000 -0.9573
vn 0.0467 -0.0000 0.9989
vn -0.9474 -0.0000 -0.3199
vn -0.8037 -0.0000 -0.5951
vt 0.716942 0.950484
vt 0.533937 0.992254
vt 0.533937 0.992254
vt 0.496652 0.981277
vt 0.683720 0.939215
vt 0.855398 0.806134
vt 0.952834 0.611354
vt 0.953905 0.395129
vt 0.858273 0.200075
vt 0.686262 0.065502
vt 0.479451 0.019465
vt 0.303915 0.059272
vt 0.154495 0.181426
vt 0.069116 0.378701
vt 0.080047 0.602873
vt 0.170748 0.806525
vt 0.328313 0.941953
vt 0.321655 0.040706
vt 0.321655 0.040706
vt 0.461403 0.008810
vt 0.264997 0.936081
vt 0.264997 0.936081
vt 0.109084 0.811745
vt 0.522489 0.005133
vt 0.522489 0.005133
vt 0.716942 0.049516
vt 0.890916 0.188255
vt 0.328313 0.941953
vt 0.170748 0.806525
vt 0.069116 0.378701
vt 0.154495 0.181426
vt 0.303915 0.059272
vt 0.479451 0.019465
vt 0.686262 0.065502
vt 0.858273 0.200075
vt 0.953905 0.395129
vt 0.952834 0.611354
vt 0.855398 0.806134
vt 0.683720 0.939215
vt 0.987464 0.388740
vt 0.012536 0.611261
vt 0.012536 0.611260
vt 0.987464 0.611260
vt 0.012536 0.388740
vt 0.987464 0.611261
vt 0.890916 0.811745
vt 0.109084 0.188255
vt 0.260037 0.067874
vt 0.260037 0.067875
vt 0.457336 0.990262
vt 0.325723 0.960222
s 0
f 31/1/1 64/1/1 34/2/1 3/3/1
f 35/4/2 63/5/2 61/6/2 59/7/2 57/8/2 55/9/2 53/10/2 51/11/2 48/12/2 45/13/2 43/14/2 41/15/2 39/16/2 37/17/2
f 16/18/3 49/19/3 50/20/3 18/20/3
f 5/21/4 38/22/4 40/23/4 7/23/4
f 19/24/5 52/25/5 54/26/5 21/26/5
f 21/26/6 54/26/6 56/27/6 23/27/6
f 2/4/7 6/28/7 8/29/7 10/15/7 12/30/7 14/31/7 17/32/7 20/33/7 22/34/7 24/35/7 26/36/7 28/37/7 30/38/7 32/39/7
f 23/27/8 56/27/8 58/40/8 25/40/8
f 7/23/9 40/23/9 42/41/9 9/42/9
f 25/40/10 58/40/10 60/43/10 27/43/10
f 9/42/11 42/42/11 44/44/11 11/44/11
f 27/45/12 60/43/12 62/46/12 29/46/12
f 11/44/13 44/44/13 46/47/13 13/47/13
f 29/46/14 62/46/14 64/1/14 31/1/14
f 13/47/15 46/47/15 47/48/15 15/49/15
f 1/50/16 2/4/16 3/3/16
f 4/51/17 5/21/17 6/28/17
f 15/49/18 16/18/18 17/32/18
f 18/20/19 19/24/19 20/33/19
f 33/50/20 34/2/20 35/4/20
f 36/51/21 37/17/21 38/22/21
f 47/48/22 48/12/22 49/19/22
f 50/20/23 51/11/23 52/25/23
f 6/28/24 2/4/24 1/50/24 4/51/24
f 8/29/25 6/28/25 5/21/25 7/23/25
f 10/15/26 8/29/26 7/23/26 9/42/26
f 12/30/27 10/15/27 9/42/27 11/44/27
f 14/31/28 12/30/28 11/44/28 13/47/28
f 17/32/29 14/31/29 13/47/29 15/49/29
f 20/33/30 17/32/30 16/18/30 18/20/30
f 22/34/31 20/33/31 19/24/31 21/26/31
f 24/35/32 22/34/32 21/26/32 23/27/32
f 26/36/33 24/35/33 23/27/33 25/40/33
f 28/37/34 26/36/34 25/40/34 27/43/34
f 30/38/35 28/37/35 27/45/35 29/46/35
f 32/39/36 30/38/36 29/46/36 31/1/36
f 2/4/37 32/39/37 31/1/37 3/3/37
f 36/51/38 33/50/38 35/4/38 37/17/38
f 40/23/39 38/22/39 37/17/39 39/16/39
f 42/41/40 40/23/40 39/16/40 41/15/40
f 44/44/41 42/42/41 41/15/41 43/14/41
f 46/47/42 44/44/42 43/14/42 45/13/42
f 47/48/43 46/47/43 45/13/43 48/12/43
f 50/20/44 49/19/44 48/12/44 51/11/44
f 54/26/45 52/25/45 51/11/45 53/10/45
f 56/27/46 54/26/46 53/10/46 55/9/46
f 58/40/47 56/27/47 55/9/47 57/8/47
f 60/43/48 58/40/48 57/8/48 59/7/48
f 62/46/49 60/43/49 59/7/49 61/6/49
f 64/1/50 62/46/50 61/6/50 63/5/50
f 34/2/51 64/1/51 63/5/51 35/4/51
f 15/49/52 47/48/52 49/19/52 16/18/52
f 3/3/53 34/2/53 33/50/53 1/50/53
f 18/20/54 50/20/54 52/25/54 19/24/54
f 4/51/55 36/51/55 38/22/55 5/21/55
f 1/50/56 33/50/56 36/51/56 4/51/56
