# Blender 4.4.3
# www.blender.org
mtllib Butter_Knife.mtl
o Butter_Knife
v 0.077889 -0.006255 0.007095
v 0.077889 0.006255 0.007095
v 0.077889 -0.006255 -0.005415
v 0.077889 0.006255 -0.005415
v 0.090399 -0.006255 0.007095
v 0.090399 0.006255 0.007095
v 0.090399 -0.006255 -0.005415
v 0.090399 0.006255 -0.005415
v 0.135981 0.010035 -0.009195
v 0.135981 -0.010035 -0.009195
v 0.135981 -0.010035 0.010875
v 0.135981 0.010035 0.010875
v 0.017991 -0.006255 -0.005415
v 0.017991 -0.006255 0.007095
v 0.017991 0.006255 0.007095
v 0.017991 0.006255 -0.005415
v 0.010598 -0.002065 -0.003984
v 0.010598 -0.002065 0.005664
v 0.010598 0.002065 0.005664
v 0.010598 0.002065 -0.003984
v 0.003871 -0.002065 -0.011537
v 0.003871 -0.000706 0.013446
v 0.003871 0.000706 0.013446
v 0.003871 0.002065 -0.011537
v -0.152547 -0.001245 -0.011537
v -0.152547 -0.000706 0.013446
v -0.152547 0.000706 0.013446
v -0.152547 0.001245 -0.011537
v -0.174197 -0.000335 -0.011537
v -0.174197 -0.000335 -0.006179
v -0.174197 0.000335 -0.006179
v -0.174197 0.000335 -0.011537
v -0.048268 -0.000706 0.013446
v -0.100408 -0.000706 0.013446
v -0.100408 -0.001518 -0.011537
v -0.048268 -0.001792 -0.011537
v -0.100408 0.001518 -0.011537
v -0.048268 0.001792 -0.011537
v -0.048268 0.000706 0.013446
v -0.100408 0.000706 0.013446
v 0.138692 0.006812 -0.005972
v 0.138692 -0.006812 -0.005972
v 0.138692 -0.006812 0.007652
v 0.138692 0.006812 0.007652
vn -0.0000 -0.0000 -1.0000
vn -0.0826 0.9966 -0.0000
vn -0.0000 -0.0000 1.0000
vn -0.0000 -1.0000 -0.0000
vn -0.0000 1.0000 -0.0000
vn 0.7653 -0.0000 0.6437
vn -0.0826 -0.0000 -0.9966
vn -0.0826 -0.0000 0.9966
vn -0.0826 -0.9966 -0.0000
vn -0.1900 -0.0000 -0.9818
vn -0.0998 0.9942 0.0390
vn -0.1900 -0.0000 0.9818
vn -0.4930 0.8700 -0.0000
vn -0.4930 -0.8700 -0.0000
vn -0.0026 -0.9996 0.0270
vn -0.0998 -0.9942 0.0390
vn 0.7468 -0.0000 -0.6651
vn 0.7566 -0.0000 0.6539
vn -0.0026 0.9996 0.0270
vn -1.0000 -0.0000 -0.0000
vn -0.6716 -0.0000 0.7409
vn -0.0376 0.9991 0.0177
vn -0.0376 -0.9991 0.0177
vn -0.0026 0.9988 0.0489
vn -0.0026 0.9993 0.0380
vn -0.0026 -0.9988 0.0489
vn -0.0026 -0.9993 0.0380
vn 1.0000 -0.0000 -0.0000
vn 0.7653 -0.6437 -0.0000
vn 0.7653 0.6437 -0.0000
vn 0.7653 -0.0000 -0.6437
vt 0.625000 0.250000
vt 0.375000 0.250000
vt 0.625000 0.500000
vt 0.375000 0.500000
vt 0.625000 0.750000
vt 0.375000 0.750000
vt 0.625000 1.000000
vt 0.375000 1.000000
vt 0.125000 0.500000
vt 0.125000 0.750000
vt 0.875000 0.500000
vt 0.875000 0.750000
vt 0.375000 0.000000
vt 0.625000 0.000000
s 0
f 4/1/1 3/2/1 13/2/1 16/1/1
f 3/2/1 4/1/1 8/3/1 7/4/1
f 8/3/2 6/5/2 12/5/2 9/3/2
f 5/6/3 6/5/3 2/7/3 1/8/3
f 3/9/4 7/4/4 5/6/4 1/10/4
f 8/3/5 4/11/5 2/12/5 6/5/5
f 12/5/6 11/6/6 43/6/6 44/5/6
f 7/4/7 8/3/7 9/3/7 10/4/7
f 6/5/8 5/6/8 11/6/8 12/5/8
f 5/6/9 7/4/9 10/4/9 11/6/9
f 16/1/10 13/2/10 17/2/10 20/1/10
f 1/8/3 2/7/3 15/7/3 14/8/3
f 2/12/5 4/11/5 16/11/5 15/12/5
f 3/9/4 1/10/4 14/10/4 13/9/4
f 19/12/11 20/11/11 24/11/11 23/12/11
f 14/8/12 15/7/12 19/7/12 18/8/12
f 15/12/13 16/11/13 20/11/13 19/12/13
f 13/9/14 14/10/14 18/10/14 17/9/14
f 35/9/15 34/10/15 26/10/15 25/9/15
f 17/9/16 18/10/16 22/10/16 21/9/16
f 20/1/17 17/2/17 21/2/17 24/1/17
f 18/8/18 19/7/18 23/7/18 22/8/18
f 28/1/1 25/2/1 29/2/1 32/1/1
f 37/1/1 35/2/1 25/2/1 28/1/1
f 34/8/3 40/7/3 27/7/3 26/8/3
f 40/12/19 37/11/19 28/11/19 27/12/19
f 30/13/20 31/14/20 32/1/20 29/2/20
f 26/8/21 27/7/21 31/7/21 30/8/21
f 27/12/22 28/11/22 32/11/22 31/12/22
f 25/9/23 26/10/23 30/10/23 29/9/23
f 23/12/24 24/11/24 38/11/24 39/12/24
f 39/12/25 38/11/25 37/11/25 40/12/25
f 22/8/3 23/7/3 39/7/3 33/8/3
f 33/8/3 39/7/3 40/7/3 34/8/3
f 24/1/1 21/2/1 36/2/1 38/1/1
f 38/1/1 36/2/1 35/2/1 37/1/1
f 21/9/26 22/10/26 33/10/26 36/9/26
f 36/9/27 33/10/27 34/10/27 35/9/27
f 42/4/28 41/3/28 44/5/28 43/6/28
f 11/6/29 10/4/29 42/4/29 43/6/29
f 9/3/30 12/5/30 44/5/30 41/3/30
f 10/4/31 9/3/31 41/3/31 42/4/31
